<svg width="162" height="86" xmlns="http://www.w3.org/2000/svg" xmlns:xlink="http://www.w3.org/1999/xlink" xml:space="preserve" overflow="hidden"><defs><clipPath id="clip0"><rect x="0" y="0" width="162" height="86"/></clipPath><clipPath id="clip1"><rect x="2" y="-1" width="158" height="88"/></clipPath></defs><g clip-path="url(#clip0)"><g clip-path="url(#clip1)"><path d="M26.853 55.3359 26.853 38.7486" stroke="#000000" stroke-width="0.120895" stroke-linecap="butt" stroke-linejoin="miter" stroke-miterlimit="4" stroke-opacity="1" fill="none" fill-rule="evenodd" transform="matrix(1 0 0 1.00047 3.25919 0)"/><path d="M27.3233 55.2012 26.3839 55.7389 26.3839 38.9507 26.853 38.6812 27.3233 38.9507Z" fill="#000000" fill-rule="evenodd" fill-opacity="1" transform="matrix(1 0 0 1.00047 3.25919 0)"/><path d="M41.2868 63.7306 26.9877 55.538" stroke="#000000" stroke-width="0.120895" stroke-linecap="butt" stroke-linejoin="miter" stroke-miterlimit="4" stroke-opacity="1" fill="none" fill-rule="evenodd" transform="matrix(1 0 0 1.00047 3.25919 0)"/><path d="M41.4216 63.3277 41.4216 63.8654 40.9513 64.1336 26.3839 55.7389 27.3233 55.2012Z" fill="#000000" fill-rule="evenodd" fill-opacity="1" transform="matrix(1 0 0 1.00047 3.25919 0)"/><path d="M41.2868 60.2388 30.0093 53.7915" stroke="#000000" stroke-width="0.120895" stroke-linecap="butt" stroke-linejoin="miter" stroke-miterlimit="4" stroke-opacity="1" fill="none" fill-rule="evenodd" transform="matrix(1 0 0 1.00047 3.25919 0)"/><path d="M41.6224 59.9693 41.1534 60.7752 29.6737 54.127 30.1427 53.3211Z" fill="#000000" fill-rule="evenodd" fill-opacity="1" transform="matrix(1 0 0 1.00047 3.25919 0)"/><path d="M55.8555 55.538 41.489 63.7306" stroke="#000000" stroke-width="0.120895" stroke-linecap="butt" stroke-linejoin="miter" stroke-miterlimit="4" stroke-opacity="1" fill="none" fill-rule="evenodd" transform="matrix(1 0 0 1.00047 3.25919 0)"/><path d="M55.4525 55.2012 55.9229 55.4707 55.9229 56.0084 41.8919 64.1336 41.4216 63.8654 41.4216 63.3277Z" fill="#000000" fill-rule="evenodd" fill-opacity="1" transform="matrix(1 0 0 1.00047 3.25919 0)"/><path d="M55.9229 38.7486 55.9229 55.3359" stroke="#000000" stroke-width="0.120895" stroke-linecap="butt" stroke-linejoin="miter" stroke-miterlimit="4" stroke-opacity="1" fill="none" fill-rule="evenodd" transform="matrix(1 0 0 1.00047 3.25919 0)"/><path d="M55.4525 38.9507 55.9229 38.6812 56.3919 38.9507 56.3919 55.2012 55.9229 55.4707 55.4525 55.2012Z" fill="#000000" fill-rule="evenodd" fill-opacity="1" transform="matrix(1 0 0 1.00047 3.25919 0)"/><path d="M52.9013 40.4952 52.9013 53.5906" stroke="#000000" stroke-width="0.120895" stroke-linecap="butt" stroke-linejoin="miter" stroke-miterlimit="4" stroke-opacity="1" fill="none" fill-rule="evenodd" transform="matrix(1 0 0 1.00047 3.25919 0)"/><path d="M52.431 40.4278 53.3717 40.4278 53.3717 53.7241 52.431 53.7241Z" fill="#000000" fill-rule="evenodd" fill-opacity="1" transform="matrix(1 0 0 1.00047 3.25919 0)"/><path d="M41.489 30.3539 55.8555 38.5478" stroke="#000000" stroke-width="0.120895" stroke-linecap="butt" stroke-linejoin="miter" stroke-miterlimit="4" stroke-opacity="1" fill="none" fill-rule="evenodd" transform="matrix(1 0 0 1.00047 3.25919 0)"/><path d="M41.4216 30.8242 41.4216 29.7501 55.9229 38.1448 55.9229 38.6812 55.4525 38.9507Z" fill="#000000" fill-rule="evenodd" fill-opacity="1" transform="matrix(1 0 0 1.00047 3.25919 0)"/><path d="M26.9877 38.5478 41.2868 30.3539" stroke="#000000" stroke-width="0.120895" stroke-linecap="butt" stroke-linejoin="miter" stroke-miterlimit="4" stroke-opacity="1" fill="none" fill-rule="evenodd" transform="matrix(1 0 0 1.00047 3.25919 0)"/><path d="M27.3233 38.9507 26.853 38.6812 26.853 38.1448 41.4216 29.7501 41.4216 30.8242Z" fill="#000000" fill-rule="evenodd" fill-opacity="1" transform="matrix(1 0 0 1.00047 3.25919 0)"/><path d="M30.0093 40.2931 41.2868 33.8458" stroke="#000000" stroke-width="0.120895" stroke-linecap="butt" stroke-linejoin="miter" stroke-miterlimit="4" stroke-opacity="1" fill="none" fill-rule="evenodd" transform="matrix(1 0 0 1.00047 3.25919 0)"/><path d="M30.1427 40.8308 29.6737 40.0249 41.1534 33.3767 41.6224 34.1826Z" fill="#000000" fill-rule="evenodd" fill-opacity="1" transform="matrix(1 0 0 1.00047 3.25919 0)"/><path d="M67.0165 30.7374C67.0165 29.5403 67.3372 28.6037 67.9802 27.927 68.6231 27.2505 69.4525 26.9113 70.47 26.9113 71.1347 26.9113 71.7359 27.0706 72.2698 27.388 72.8036 27.7071 73.2115 28.1503 73.492 28.7194 73.7724 29.2869 73.9117 29.9333 73.9117 30.6533 73.9117 31.3854 73.7655 32.0401 73.4701 32.616 73.1747 33.1935 72.7567 33.63 72.2159 33.9271 71.6737 34.2244 71.0911 34.3721 70.4648 34.3721 69.7848 34.3721 69.1788 34.2093 68.645 33.8802 68.1095 33.5528 67.7047 33.1045 67.4295 32.5371 67.1542 31.9713 67.0165 31.3704 67.0165 30.7373ZM68.0003 30.7527C68.0003 31.6222 68.2336 32.3056 68.7005 32.8058 69.1687 33.3062 69.7548 33.5564 70.4597 33.5564 71.1785 33.5564 71.7693 33.3044 72.2327 32.7991 72.6961 32.2938 72.9296 31.5769 72.9296 30.6485 72.9296 30.0625 72.8288 29.5504 72.6307 29.1123 72.4325 28.6741 72.1422 28.335 71.7611 28.0932 71.3782 27.8532 70.95 27.7324 70.475 27.7324 69.7983 27.7324 69.2176 27.9639 68.7307 28.4289 68.2437 28.8924 68.0003 29.6681 68.0003 30.7526Z" fill="#000000" fill-rule="nonzero" fill-opacity="1" transform="matrix(1 0 0 1.00047 3.25919 0)"/><path d="M70.3554 63.7306 56.0563 55.538" stroke="#000000" stroke-width="0.120895" stroke-linecap="butt" stroke-linejoin="miter" stroke-miterlimit="4" stroke-opacity="1" fill="none" fill-rule="evenodd" transform="matrix(1 0 0 1.00047 3.25919 0)"/><path d="M70.4902 63.3277 70.4902 64.4018 55.9229 56.0084 55.9229 55.4707 56.3919 55.2012Z" fill="#000000" fill-rule="evenodd" fill-opacity="1" transform="matrix(1 0 0 1.00047 3.25919 0)"/><path d="M84.9241 55.538 70.5576 63.7306" stroke="#000000" stroke-width="0.120895" stroke-linecap="butt" stroke-linejoin="miter" stroke-miterlimit="4" stroke-opacity="1" fill="none" fill-rule="evenodd" transform="matrix(1 0 0 1.00047 3.25919 0)"/><path d="M84.5211 55.2012 84.9914 55.4707 84.9914 56.0084 70.4902 64.4018 70.4902 63.3277Z" fill="#000000" fill-rule="evenodd" fill-opacity="1" transform="matrix(1 0 0 1.00047 3.25919 0)"/><path d="M84.9914 38.7486 84.9914 55.3359" stroke="#000000" stroke-width="0.120895" stroke-linecap="butt" stroke-linejoin="miter" stroke-miterlimit="4" stroke-opacity="1" fill="none" fill-rule="evenodd" transform="matrix(1 0 0 1.00047 3.25919 0)"/><path d="M84.5211 38.9507 85.4605 38.413 85.4605 55.1351 84.9914 55.4707 84.5211 55.2012Z" fill="#000000" fill-rule="evenodd" fill-opacity="1" transform="matrix(1 0 0 1.00047 3.25919 0)"/><path d="M74.7867 32.839 84.9241 38.5478" stroke="#000000" stroke-width="0.120895" stroke-linecap="butt" stroke-linejoin="miter" stroke-miterlimit="4" stroke-opacity="1" fill="none" fill-rule="evenodd" transform="matrix(1 0 0 1.00047 3.25919 0)"/><path d="M74.4511 33.1072 74.9214 32.3013 85.4605 38.413 84.5211 38.9507Z" fill="#000000" fill-rule="evenodd" fill-opacity="1" transform="matrix(1 0 0 1.00047 3.25919 0)"/><path d="M56.0563 38.5478 66.1263 32.839" stroke="#000000" stroke-width="0.120895" stroke-linecap="butt" stroke-linejoin="miter" stroke-miterlimit="4" stroke-opacity="1" fill="none" fill-rule="evenodd" transform="matrix(1 0 0 1.00047 3.25919 0)"/><path d="M56.3919 38.9507 55.9229 38.6812 55.9229 38.1448 65.9929 32.3013 66.4619 33.1746Z" fill="#000000" fill-rule="evenodd" fill-opacity="1" transform="matrix(1 0 0 1.00047 3.25919 0)"/><path d="M1.94702 34.2487 1.94702 27.0383 2.90245 27.0383 2.90245 30.0002 6.64969 30.0002 6.64969 27.0383 7.605 27.0383 7.605 34.2487 6.64969 34.2487 6.64969 30.8514 2.90245 30.8514 2.90245 34.2487Z" fill="#000000" fill-rule="nonzero" fill-opacity="1" transform="matrix(1 0 0 1.00047 3.25919 0)"/><path d="M8.94577 30.7374C8.94577 29.5403 9.26641 28.6037 9.90944 27.927 10.5525 27.2505 11.3817 26.9113 12.3992 26.9113 13.064 26.9113 13.6652 27.0706 14.1991 27.388 14.7329 27.7071 15.1408 28.1503 15.4213 28.7194 15.7017 29.2869 15.841 29.9333 15.841 30.6533 15.841 31.3854 15.6948 32.0401 15.3994 32.616 15.104 33.1935 14.686 33.63 14.1453 33.9271 13.603 34.2244 13.0204 34.3721 12.3942 34.3721 11.7142 34.3721 11.1081 34.2093 10.5742 33.8802 10.0388 33.5528 9.63406 33.1045 9.35879 32.5371 9.08352 31.9713 8.9458 31.3704 8.9458 30.7373ZM9.92959 30.7527C9.92959 31.6222 10.163 32.3056 10.6297 32.8058 11.0981 33.3062 11.684 33.5564 12.389 33.5564 13.1077 33.5564 13.6986 33.3044 14.162 32.7991 14.6255 32.2938 14.8589 31.5769 14.8589 30.6485 14.8589 30.0625 14.7581 29.5504 14.5599 29.1123 14.3617 28.6741 14.0715 28.335 13.6903 28.0932 13.3075 27.8532 12.8793 27.7324 12.4043 27.7324 11.7276 27.7324 11.1468 27.9639 10.6599 28.4289 10.173 28.8924 9.92964 29.6681 9.92964 30.7526Z" fill="#000000" fill-rule="nonzero" fill-opacity="1" transform="matrix(1 0 0 1.00047 3.25919 0)"/><path d="M16.7169 32.839 26.7869 38.5478" stroke="#000000" stroke-width="0.120895" stroke-linecap="butt" stroke-linejoin="miter" stroke-miterlimit="4" stroke-opacity="1" fill="none" fill-rule="evenodd" transform="matrix(1 0 0 1.00047 3.25919 0)"/><path d="M16.38 33.1746 16.8503 32.3013 26.853 38.1448 26.853 38.6812 26.3839 38.9507Z" fill="#000000" fill-rule="evenodd" fill-opacity="1" transform="matrix(1 0 0 1.00047 3.25919 0)"/><path d="M37.9479 81.1031C37.9479 79.906 38.2686 78.9694 38.9116 78.2926 39.5545 77.6162 40.3839 77.277 41.4014 77.277 42.0661 77.277 42.6673 77.4363 43.2012 77.7536 43.735 78.0728 44.1429 78.516 44.4234 79.0851 44.7038 79.6526 44.8431 80.299 44.8431 81.019 44.8431 81.7511 44.697 82.4058 44.4015 82.9817 44.1061 83.5592 43.6881 83.9957 43.1473 84.2928 42.6051 84.59 42.0225 84.7377 41.3963 84.7377 40.7162 84.7377 40.1102 84.575 39.5763 84.2459 39.0409 83.9185 38.6361 83.4702 38.3609 82.9028 38.0856 82.3371 37.9479 81.736 37.9479 81.103ZM38.9317 81.1184C38.9317 81.9879 39.165 82.6713 39.6319 83.1715 40.1001 83.6719 40.686 83.9221 41.3912 83.9221 42.1099 83.9221 42.7007 83.6701 43.1642 83.1648 43.6276 82.6595 43.861 81.9426 43.861 81.0142 43.861 80.4282 43.7602 79.9161 43.5621 79.4779 43.364 79.0397 43.0736 78.7007 42.6925 78.4589 42.3097 78.2189 41.8814 78.098 41.4064 78.098 40.7297 78.098 40.1489 78.3296 39.6621 78.7946 39.1752 79.2581 38.9318 80.0338 38.9318 81.1183Z" fill="#000000" fill-rule="nonzero" fill-opacity="1" transform="matrix(1 0 0 1.00047 3.25919 0)"/><path d="M46.121 84.6157 46.121 77.4052 47.076 77.4052 47.076 80.3672 50.8244 80.3672 50.8244 77.4052 51.7793 77.4052 51.7793 84.6157 50.8244 84.6157 50.8244 81.2184 47.076 81.2184 47.076 84.6157Z" fill="#000000" fill-rule="nonzero" fill-opacity="1" transform="matrix(1 0 0 1.00047 3.25919 0)"/><path d="M41.4216 76.0875 41.4216 63.9315" stroke="#000000" stroke-width="0.120895" stroke-linecap="butt" stroke-linejoin="miter" stroke-miterlimit="4" stroke-opacity="1" fill="none" fill-rule="evenodd" transform="matrix(1 0 0 1.00047 3.25919 0)"/><path d="M41.8919 76.1549 40.9513 76.1549 40.9513 64.1336 41.4216 63.8654 41.8919 64.1336Z" fill="#000000" fill-rule="evenodd" fill-opacity="1" transform="matrix(1 0 0 1.00047 3.25919 0)"/><path d="M98.2165 32.7716 96.7394 30.1531" stroke="#000000" stroke-width="0.120895" stroke-linecap="butt" stroke-linejoin="miter" stroke-miterlimit="4" stroke-opacity="1" fill="none" fill-rule="evenodd" transform="matrix(1 0 0 1.00047 3.25919 0)"/><path d="M97.075 29.7501 98.7542 32.7043 97.8809 33.1072 96.2703 30.3539Z" fill="#000000" fill-rule="evenodd" fill-opacity="1" transform="matrix(1 0 0 1.00047 3.25919 0)"/><path d="M96.3364 33.6449 95.1288 31.2946" stroke="#000000" stroke-width="0.120895" stroke-linecap="butt" stroke-linejoin="miter" stroke-miterlimit="4" stroke-opacity="1" fill="none" fill-rule="evenodd" transform="matrix(1 0 0 1.00047 3.25919 0)"/><path d="M95.397 30.959 96.8741 33.5102 96.0682 33.9131 94.6585 31.4954Z" fill="#000000" fill-rule="evenodd" fill-opacity="1" transform="matrix(1 0 0 1.00047 3.25919 0)"/><path d="M94.5238 34.4508 93.4496 32.5034" stroke="#000000" stroke-width="0.120895" stroke-linecap="butt" stroke-linejoin="miter" stroke-miterlimit="4" stroke-opacity="1" fill="none" fill-rule="evenodd" transform="matrix(1 0 0 1.00047 3.25919 0)"/><path d="M93.7852 32.1005 95.0615 34.3835 94.1882 34.7864 92.9806 32.6382Z" fill="#000000" fill-rule="evenodd" fill-opacity="1" transform="matrix(1 0 0 1.00047 3.25919 0)"/><path d="M92.7111 35.3241 91.8391 33.6449" stroke="#000000" stroke-width="0.120895" stroke-linecap="butt" stroke-linejoin="miter" stroke-miterlimit="4" stroke-opacity="1" fill="none" fill-rule="evenodd" transform="matrix(1 0 0 1.00047 3.25919 0)"/><path d="M92.1073 33.242 93.2488 35.1894 92.3755 35.5923 91.3688 33.8458Z" fill="#000000" fill-rule="evenodd" fill-opacity="1" transform="matrix(1 0 0 1.00047 3.25919 0)"/><path d="M90.8984 36.13 90.2273 34.7864" stroke="#000000" stroke-width="0.120895" stroke-linecap="butt" stroke-linejoin="miter" stroke-miterlimit="4" stroke-opacity="1" fill="none" fill-rule="evenodd" transform="matrix(1 0 0 1.00047 3.25919 0)"/><path d="M90.4955 34.4508 91.4362 36.0627 90.5629 36.4656 89.6909 34.9886Z" fill="#000000" fill-rule="evenodd" fill-opacity="1" transform="matrix(1 0 0 1.00047 3.25919 0)"/><path d="M89.0858 37.002 88.5494 35.9953" stroke="#000000" stroke-width="0.120895" stroke-linecap="butt" stroke-linejoin="miter" stroke-miterlimit="4" stroke-opacity="1" fill="none" fill-rule="evenodd" transform="matrix(1 0 0 1.00047 3.25919 0)"/><path d="M88.8176 35.5923 89.6235 36.8686 88.7515 37.2715 88.079 36.13Z" fill="#000000" fill-rule="evenodd" fill-opacity="1" transform="matrix(1 0 0 1.00047 3.25919 0)"/><path d="M87.2071 37.8079 86.9376 37.1368" stroke="#000000" stroke-width="0.120895" stroke-linecap="butt" stroke-linejoin="miter" stroke-miterlimit="4" stroke-opacity="1" fill="none" fill-rule="evenodd" transform="matrix(1 0 0 1.00047 3.25919 0)"/><path d="M87.2071 36.7338 87.7435 37.7419 86.8715 38.1448 86.4011 37.3389Z" fill="#000000" fill-rule="evenodd" fill-opacity="1" transform="matrix(1 0 0 1.00047 3.25919 0)"/><path d="M96.0851 64.315C96.0851 63.1179 96.4057 62.1812 97.0488 61.5045 97.6918 60.828 98.5211 60.4888 99.5386 60.4888 100.203 60.4888 100.804 60.6482 101.338 60.9655 101.872 61.2846 102.28 61.7279 102.561 62.297 102.841 62.8645 102.98 63.5109 102.98 64.2309 102.98 64.9629 102.834 65.6177 102.539 66.1936 102.243 66.7711 101.825 67.2076 101.284 67.5047 100.742 67.8019 100.16 67.9496 99.5335 67.9496 98.8534 67.9496 98.2474 67.7869 97.7135 67.4578 97.1781 67.1304 96.7733 66.6821 96.4981 66.1147 96.2228 65.549 96.0851 64.9479 96.0851 64.3148ZM97.0689 64.3303C97.0689 65.1998 97.3022 65.8831 97.7691 66.3834 98.2374 66.8838 98.8233 67.134 99.5283 67.134 100.247 67.134 100.838 66.882 101.301 66.3767 101.765 65.8713 101.998 65.1544 101.998 64.2261 101.998 63.6401 101.897 63.128 101.699 62.6898 101.501 62.2516 101.211 61.9125 100.83 61.6707 100.447 61.4308 100.019 61.3099 99.5436 61.3099 98.8669 61.3099 98.2862 61.5414 97.7992 62.0065 97.3123 62.4699 97.069 63.2457 97.069 64.3301Z" fill="#000000" fill-rule="nonzero" fill-opacity="1" transform="matrix(1 0 0 1.00047 3.25919 0)"/><path d="M104.258 67.8276 104.258 60.6158 105.214 60.6158 105.214 63.5777 108.962 63.5777 108.962 60.6158 109.916 60.6158 109.916 67.8276 108.962 67.8276 108.962 64.429 105.214 64.429 105.214 67.8276Z" fill="#000000" fill-rule="nonzero" fill-opacity="1" transform="matrix(1 0 0 1.00047 3.25919 0)"/><path d="M95.4644 61.4476 85.1262 55.538" stroke="#000000" stroke-width="0.120895" stroke-linecap="butt" stroke-linejoin="miter" stroke-miterlimit="4" stroke-opacity="1" fill="none" fill-rule="evenodd" transform="matrix(1 0 0 1.00047 3.25919 0)"/><path d="M96.4038 60.104 94.7259 62.9921 84.9914 56.0084 84.9914 55.4707 85.4605 55.1351Z" fill="#000000" fill-rule="evenodd" fill-opacity="1" transform="matrix(1 0 0 1.00047 3.25919 0)"/><path d="M113.993 38.5478 99.6261 30.3539" stroke="#000000" stroke-width="0.120895" stroke-linecap="butt" stroke-linejoin="miter" stroke-miterlimit="4" stroke-opacity="1" fill="none" fill-rule="evenodd" transform="matrix(1 0 0 1.00047 3.25919 0)"/><path d="M114.06 38.1448 114.06 39.2189 99.0897 30.556 100.029 30.0183Z" fill="#000000" fill-rule="evenodd" fill-opacity="1" transform="matrix(1 0 0 1.00047 3.25919 0)"/><path d="M113.993 35.0559 102.648 28.6086" stroke="#000000" stroke-width="0.120895" stroke-linecap="butt" stroke-linejoin="miter" stroke-miterlimit="4" stroke-opacity="1" fill="none" fill-rule="evenodd" transform="matrix(1 0 0 1.00047 3.25919 0)"/><path d="M114.328 34.7864 113.859 35.5923 102.312 28.9442 102.781 28.1383Z" fill="#000000" fill-rule="evenodd" fill-opacity="1" transform="matrix(1 0 0 1.00047 3.25919 0)"/><path d="M128.494 30.3539 114.195 38.5478" stroke="#000000" stroke-width="0.120895" stroke-linecap="butt" stroke-linejoin="miter" stroke-miterlimit="4" stroke-opacity="1" fill="none" fill-rule="evenodd" transform="matrix(1 0 0 1.00047 3.25919 0)"/><path d="M128.158 30.0183 128.629 30.2878 128.629 30.8242 114.06 39.2189 114.06 38.1448Z" fill="#000000" fill-rule="evenodd" fill-opacity="1" transform="matrix(1 0 0 1.00047 3.25919 0)"/><path d="M128.629 13.5658 128.629 30.1531" stroke="#000000" stroke-width="0.120895" stroke-linecap="butt" stroke-linejoin="miter" stroke-miterlimit="4" stroke-opacity="1" fill="none" fill-rule="evenodd" transform="matrix(1 0 0 1.00047 3.25919 0)"/><path d="M128.158 13.7666 128.629 13.4984 129.098 13.7666 129.098 30.0183 128.629 30.2878 128.158 30.0183Z" fill="#000000" fill-rule="evenodd" fill-opacity="1" transform="matrix(1 0 0 1.00047 3.25919 0)"/><path d="M125.607 15.3111 125.607 28.4065" stroke="#000000" stroke-width="0.120895" stroke-linecap="butt" stroke-linejoin="miter" stroke-miterlimit="4" stroke-opacity="1" fill="none" fill-rule="evenodd" transform="matrix(1 0 0 1.00047 3.25919 0)"/><path d="M125.137 15.245 126.077 15.245 126.077 28.5412 125.137 28.5412Z" fill="#000000" fill-rule="evenodd" fill-opacity="1" transform="matrix(1 0 0 1.00047 3.25919 0)"/><path d="M114.195 5.17106 128.494 13.3636" stroke="#000000" stroke-width="0.120895" stroke-linecap="butt" stroke-linejoin="miter" stroke-miterlimit="4" stroke-opacity="1" fill="none" fill-rule="evenodd" transform="matrix(1 0 0 1.00047 3.25919 0)"/><path d="M114.06 5.64113 114.06 4.5665 128.629 12.9607 128.629 13.4984 128.158 13.7666Z" fill="#000000" fill-rule="evenodd" fill-opacity="1" transform="matrix(1 0 0 1.00047 3.25919 0)"/><path d="M99.6261 13.3636 113.993 5.17106" stroke="#000000" stroke-width="0.120895" stroke-linecap="butt" stroke-linejoin="miter" stroke-miterlimit="4" stroke-opacity="1" fill="none" fill-rule="evenodd" transform="matrix(1 0 0 1.00047 3.25919 0)"/><path d="M100.029 13.7666 99.0897 13.2289 114.06 4.5665 114.06 5.64113Z" fill="#000000" fill-rule="evenodd" fill-opacity="1" transform="matrix(1 0 0 1.00047 3.25919 0)"/><path d="M102.648 15.1102 113.993 8.66305" stroke="#000000" stroke-width="0.120895" stroke-linecap="butt" stroke-linejoin="miter" stroke-miterlimit="4" stroke-opacity="1" fill="none" fill-rule="evenodd" transform="matrix(1 0 0 1.00047 3.25919 0)"/><path d="M102.781 15.6466 102.312 14.8407 113.859 8.19298 114.328 8.99889Z" fill="#000000" fill-rule="evenodd" fill-opacity="1" transform="matrix(1 0 0 1.00047 3.25919 0)"/><path d="M99.5588 30.1531 99.5588 13.5658" stroke="#000000" stroke-width="0.120895" stroke-linecap="butt" stroke-linejoin="miter" stroke-miterlimit="4" stroke-opacity="1" fill="none" fill-rule="evenodd" transform="matrix(1 0 0 1.00047 3.25919 0)"/><path d="M100.029 30.0183 99.0897 30.556 99.0897 13.2289 100.029 13.7666Z" fill="#000000" fill-rule="evenodd" fill-opacity="1" transform="matrix(1 0 0 1.00047 3.25919 0)"/><path d="M139.726 5.55367C139.726 4.35662 140.046 3.41995 140.69 2.74321 141.333 2.06671 142.162 1.7275 143.179 1.7275 143.844 1.7275 144.445 1.88695 144.979 2.20426 145.513 2.52331 145.921 2.9666 146.202 3.5357 146.482 4.10321 146.622 4.74958 146.622 5.46964 146.622 6.20167 146.475 6.8564 146.18 7.43233 145.885 8.00983 145.466 8.44629 144.926 8.74343 144.383 9.0406 143.801 9.1883 143.174 9.1883 142.495 9.1883 141.889 9.02553 141.355 8.69648 140.82 8.36901 140.414 7.92082 140.139 7.35337 139.863 6.78762 139.726 6.18663 139.726 5.55354ZM140.71 5.5689C140.71 6.43849 140.943 7.12177 141.411 7.62203 141.878 8.12243 142.464 8.37265 143.169 8.37265 143.888 8.37265 144.479 8.1207 144.943 7.61539 145.406 7.11006 145.64 6.39309 145.64 5.46482 145.64 4.87874 145.539 4.36675 145.34 3.92853 145.142 3.49033 144.852 3.15128 144.471 2.90948 144.087 2.66944 143.66 2.54854 143.184 2.54854 142.508 2.54854 141.928 2.78018 141.44 3.24519 140.953 3.70861 140.71 4.4843 140.71 5.56887Z" fill="#000000" fill-rule="nonzero" fill-opacity="1" transform="matrix(1 0 0 1.00047 3.25919 0)"/><path d="M147.824 9.066 147.824 1.85515 148.783 1.85515 148.783 4.81682 152.527 4.81682 152.527 1.85515 153.486 1.85515 153.486 9.066 152.527 9.066 152.527 5.66795 148.783 5.66795 148.783 9.066Z" fill="#000000" fill-rule="nonzero" fill-opacity="1" transform="matrix(1 0 0 1.00047 3.25919 0)"/><path d="M138.767 7.65566 128.695 13.3636" stroke="#000000" stroke-width="0.120895" stroke-linecap="butt" stroke-linejoin="miter" stroke-miterlimit="4" stroke-opacity="1" fill="none" fill-rule="evenodd" transform="matrix(1 0 0 1.00047 3.25919 0)"/><path d="M138.638 7.11847 139.104 7.9915 129.098 13.7666 128.629 13.4984 128.629 12.9607Z" fill="#000000" fill-rule="evenodd" fill-opacity="1" transform="matrix(1 0 0 1.00047 3.25919 0)"/><path d="M139.726 39.1321C139.726 37.9351 140.046 36.9984 140.69 36.3217 141.333 35.6452 142.162 35.306 143.179 35.306 143.844 35.306 144.445 35.4654 144.979 35.7827 145.513 36.1018 145.921 36.5451 146.202 37.1141 146.482 37.6816 146.622 38.328 146.622 39.048 146.622 39.7801 146.475 40.4348 146.18 41.0107 145.885 41.5884 145.466 42.0247 144.926 42.3218 144.383 42.6191 143.801 42.7668 143.174 42.7668 142.495 42.7668 141.889 42.604 141.355 42.2749 140.82 41.9475 140.414 41.4992 140.139 40.9318 139.863 40.366 139.726 39.7651 139.726 39.132ZM140.71 39.1474C140.71 40.017 140.943 40.7003 141.411 41.2006 141.878 41.701 142.464 41.9511 143.169 41.9511 143.888 41.9511 144.479 41.6991 144.943 41.1938 145.406 40.6885 145.64 39.9716 145.64 39.0433 145.64 38.4572 145.539 37.9452 145.34 37.507 145.142 37.0688 144.852 36.7297 144.471 36.4879 144.087 36.248 143.66 36.1271 143.184 36.1271 142.508 36.1271 141.928 36.3586 141.44 36.8236 140.953 37.2871 140.71 38.0628 140.71 39.1473Z" fill="#000000" fill-rule="nonzero" fill-opacity="1" transform="matrix(1 0 0 1.00047 3.25919 0)"/><path d="M147.824 42.6434 147.824 35.433 148.783 35.433 148.783 38.3949 152.527 38.3949 152.527 35.433 153.486 35.433 153.486 42.6434 152.527 42.6434 152.527 39.2462 148.783 39.2462 148.783 42.6434Z" fill="#000000" fill-rule="nonzero" fill-opacity="1" transform="matrix(1 0 0 1.00047 3.25919 0)"/><path d="M139.104 36.2635 128.695 30.3539" stroke="#000000" stroke-width="0.120895" stroke-linecap="butt" stroke-linejoin="miter" stroke-miterlimit="4" stroke-opacity="1" fill="none" fill-rule="evenodd" transform="matrix(1 0 0 1.00047 3.25919 0)"/><path d="M139.441 35.9953 138.962 36.8012 128.629 30.8242 128.629 30.2878 129.098 30.0183Z" fill="#000000" fill-rule="evenodd" fill-opacity="1" transform="matrix(1 0 0 1.00047 3.25919 0)"/></g></g></svg>